<mxfile host="app.diagrams.net" modified="2021-07-10T01:07:25.698Z" agent="5.0 (Macintosh; Intel Mac OS X 10_15_7) AppleWebKit/537.36 (KHTML, like Gecko) Chrome/91.0.4472.101 Safari/537.36" etag="85KV_YtaEVMs3FE7LTbq" version="14.8.5" type="github">
  <diagram id="s0ktNoMSp_u4B69irmWW" name="Page-1">
    <mxGraphModel dx="1554" dy="826" grid="1" gridSize="10" guides="1" tooltips="1" connect="1" arrows="1" fold="1" page="1" pageScale="1" pageWidth="827" pageHeight="1169" math="0" shadow="0">
      <root>
        <mxCell id="0" />
        <mxCell id="1" parent="0" />
        <mxCell id="94mBQBSpKMq9l9AAO7GC-1" value="worker" style="rounded=0;whiteSpace=wrap;html=1;fontSize=18;fillColor=#dae8fc;strokeColor=#6c8ebf;" parent="1" vertex="1">
          <mxGeometry x="500" y="480" width="120" height="60" as="geometry" />
        </mxCell>
        <mxCell id="94mBQBSpKMq9l9AAO7GC-2" value="worker" style="rounded=0;whiteSpace=wrap;html=1;fontSize=18;fillColor=#dae8fc;strokeColor=#6c8ebf;" parent="1" vertex="1">
          <mxGeometry x="510" y="490" width="120" height="60" as="geometry" />
        </mxCell>
        <mxCell id="94mBQBSpKMq9l9AAO7GC-3" value="worker" style="rounded=0;whiteSpace=wrap;html=1;fontSize=18;fillColor=#dae8fc;strokeColor=#6c8ebf;" parent="1" vertex="1">
          <mxGeometry x="520" y="500" width="120" height="60" as="geometry" />
        </mxCell>
        <mxCell id="94mBQBSpKMq9l9AAO7GC-4" value="requester.Worker" style="rounded=0;whiteSpace=wrap;html=1;fontSize=18;fillColor=#ffe6cc;strokeColor=#d79b00;" parent="1" vertex="1">
          <mxGeometry x="240" y="480" width="160" height="60" as="geometry" />
        </mxCell>
        <mxCell id="94mBQBSpKMq9l9AAO7GC-5" value="" style="endArrow=classic;html=1;fontSize=18;exitX=1;exitY=0.5;exitDx=0;exitDy=0;" parent="1" source="94mBQBSpKMq9l9AAO7GC-4" edge="1">
          <mxGeometry width="50" height="50" relative="1" as="geometry">
            <mxPoint x="510" y="610" as="sourcePoint" />
            <mxPoint x="500" y="510" as="targetPoint" />
          </mxGeometry>
        </mxCell>
        <mxCell id="94mBQBSpKMq9l9AAO7GC-6" value="stopCh" style="rounded=0;whiteSpace=wrap;html=1;fontSize=18;fillColor=#d5e8d4;strokeColor=#82b366;" parent="1" vertex="1">
          <mxGeometry x="390" y="350" width="120" height="40" as="geometry" />
        </mxCell>
        <mxCell id="94mBQBSpKMq9l9AAO7GC-8" value="" style="edgeStyle=segmentEdgeStyle;endArrow=classic;html=1;fontSize=18;entryX=0;entryY=0.5;entryDx=0;entryDy=0;" parent="1" target="94mBQBSpKMq9l9AAO7GC-6" edge="1">
          <mxGeometry width="50" height="50" relative="1" as="geometry">
            <mxPoint x="305" y="480" as="sourcePoint" />
            <mxPoint x="390" y="400" as="targetPoint" />
            <Array as="points">
              <mxPoint x="305" y="370" />
            </Array>
          </mxGeometry>
        </mxCell>
        <mxCell id="94mBQBSpKMq9l9AAO7GC-9" value="results" style="rounded=0;whiteSpace=wrap;html=1;fontSize=18;fillColor=#d5e8d4;strokeColor=#82b366;" parent="1" vertex="1">
          <mxGeometry x="520" y="740" width="120" height="40" as="geometry" />
        </mxCell>
        <mxCell id="94mBQBSpKMq9l9AAO7GC-10" value="" style="edgeStyle=segmentEdgeStyle;endArrow=classic;html=1;fontSize=18;exitX=0.406;exitY=1;exitDx=0;exitDy=0;exitPerimeter=0;entryX=0;entryY=0.5;entryDx=0;entryDy=0;" parent="1" source="94mBQBSpKMq9l9AAO7GC-4" target="94mBQBSpKMq9l9AAO7GC-9" edge="1">
          <mxGeometry width="50" height="50" relative="1" as="geometry">
            <mxPoint x="305" y="720" as="sourcePoint" />
            <mxPoint x="370" y="720" as="targetPoint" />
            <Array as="points">
              <mxPoint x="305" y="760" />
            </Array>
          </mxGeometry>
        </mxCell>
        <mxCell id="94mBQBSpKMq9l9AAO7GC-11" value="service" style="rounded=0;whiteSpace=wrap;html=1;fontSize=18;fillColor=#e1d5e7;strokeColor=#9673a6;" parent="1" vertex="1">
          <mxGeometry x="740" y="480" width="120" height="60" as="geometry" />
        </mxCell>
        <mxCell id="94mBQBSpKMq9l9AAO7GC-12" value="" style="endArrow=classic;html=1;fontSize=18;exitX=1;exitY=0.5;exitDx=0;exitDy=0;" parent="1" edge="1">
          <mxGeometry width="50" height="50" relative="1" as="geometry">
            <mxPoint x="640" y="509.5" as="sourcePoint" />
            <mxPoint x="740" y="509.5" as="targetPoint" />
          </mxGeometry>
        </mxCell>
        <mxCell id="94mBQBSpKMq9l9AAO7GC-13" value="" style="edgeStyle=segmentEdgeStyle;endArrow=classic;html=1;fontSize=18;exitX=0.406;exitY=1;exitDx=0;exitDy=0;exitPerimeter=0;entryX=1;entryY=0.5;entryDx=0;entryDy=0;" parent="1" target="94mBQBSpKMq9l9AAO7GC-9" edge="1">
          <mxGeometry width="50" height="50" relative="1" as="geometry">
            <mxPoint x="800" y="540" as="sourcePoint" />
            <mxPoint x="885.04" y="640" as="targetPoint" />
            <Array as="points">
              <mxPoint x="800" y="760" />
            </Array>
          </mxGeometry>
        </mxCell>
        <mxCell id="94mBQBSpKMq9l9AAO7GC-14" value="send response to &lt;br&gt;results channel&amp;nbsp;" style="text;html=1;strokeColor=none;fillColor=none;align=center;verticalAlign=middle;whiteSpace=wrap;rounded=0;fontSize=13;" parent="1" vertex="1">
          <mxGeometry x="780" y="605" width="150" height="20" as="geometry" />
        </mxCell>
        <mxCell id="94mBQBSpKMq9l9AAO7GC-15" value="create channel" style="text;html=1;strokeColor=none;fillColor=none;align=center;verticalAlign=middle;whiteSpace=wrap;rounded=0;fontSize=13;rotation=-90;" parent="1" vertex="1">
          <mxGeometry x="230" y="630" width="130" height="20" as="geometry" />
        </mxCell>
        <mxCell id="94mBQBSpKMq9l9AAO7GC-16" value="create channel" style="text;html=1;strokeColor=none;fillColor=none;align=center;verticalAlign=middle;whiteSpace=wrap;rounded=0;fontSize=13;rotation=-90;" parent="1" vertex="1">
          <mxGeometry x="230" y="420" width="130" height="20" as="geometry" />
        </mxCell>
        <mxCell id="94mBQBSpKMq9l9AAO7GC-17" value="os.Interrupt" style="rounded=0;whiteSpace=wrap;html=1;fontSize=13;fillColor=#e1d5e7;strokeColor=#9673a6;" parent="1" vertex="1">
          <mxGeometry x="340" y="440" width="90" height="30" as="geometry" />
        </mxCell>
        <mxCell id="94mBQBSpKMq9l9AAO7GC-18" value="Timer" style="rounded=0;whiteSpace=wrap;html=1;fontSize=13;fillColor=#d5e8d4;strokeColor=#82b366;" parent="1" vertex="1">
          <mxGeometry x="470" y="440" width="90" height="30" as="geometry" />
        </mxCell>
        <mxCell id="94mBQBSpKMq9l9AAO7GC-20" value="" style="endArrow=classic;html=1;fontSize=18;entryX=0.075;entryY=1;entryDx=0;entryDy=0;entryPerimeter=0;" parent="1" edge="1" target="94mBQBSpKMq9l9AAO7GC-6">
          <mxGeometry width="50" height="50" relative="1" as="geometry">
            <mxPoint x="399" y="439" as="sourcePoint" />
            <mxPoint x="439" y="439" as="targetPoint" />
          </mxGeometry>
        </mxCell>
        <mxCell id="94mBQBSpKMq9l9AAO7GC-21" value="send signal to &lt;br&gt;stopCh channel" style="text;html=1;strokeColor=none;fillColor=none;align=center;verticalAlign=middle;whiteSpace=wrap;rounded=0;fontSize=13;" parent="1" vertex="1">
          <mxGeometry x="385" y="410" width="130" height="20" as="geometry" />
        </mxCell>
        <mxCell id="fX7RQSnT5xPOVE9BPrSB-1" style="edgeStyle=orthogonalEdgeStyle;rounded=0;orthogonalLoop=1;jettySize=auto;html=1;exitX=0.5;exitY=1;exitDx=0;exitDy=0;" parent="1" source="94mBQBSpKMq9l9AAO7GC-21" target="94mBQBSpKMq9l9AAO7GC-21" edge="1">
          <mxGeometry relative="1" as="geometry" />
        </mxCell>
        <mxCell id="fX7RQSnT5xPOVE9BPrSB-2" value="" style="edgeStyle=segmentEdgeStyle;endArrow=classic;html=1;fontSize=18;verticalAlign=bottom;exitX=1;exitY=0.5;exitDx=0;exitDy=0;" parent="1" source="94mBQBSpKMq9l9AAO7GC-6" edge="1">
          <mxGeometry width="50" height="50" relative="1" as="geometry">
            <mxPoint x="610" y="330" as="sourcePoint" />
            <mxPoint x="570" y="480" as="targetPoint" />
            <Array as="points">
              <mxPoint x="570" y="370" />
            </Array>
          </mxGeometry>
        </mxCell>
        <mxCell id="fX7RQSnT5xPOVE9BPrSB-3" value="receive signal from stopCh channel" style="text;html=1;strokeColor=none;fillColor=none;align=center;verticalAlign=middle;whiteSpace=wrap;rounded=0;fontSize=13;" parent="1" vertex="1">
          <mxGeometry x="570" y="420" width="130" height="20" as="geometry" />
        </mxCell>
        <mxCell id="fX7RQSnT5xPOVE9BPrSB-4" value="reporter" style="rounded=0;whiteSpace=wrap;html=1;fontSize=18;fillColor=#dae8fc;strokeColor=#6c8ebf;" parent="1" vertex="1">
          <mxGeometry x="520" y="585" width="120" height="60" as="geometry" />
        </mxCell>
        <mxCell id="fX7RQSnT5xPOVE9BPrSB-6" value="" style="edgeStyle=segmentEdgeStyle;endArrow=classic;html=1;fontSize=18;exitX=1;exitY=0.75;exitDx=0;exitDy=0;entryX=0;entryY=0.5;entryDx=0;entryDy=0;" parent="1" source="94mBQBSpKMq9l9AAO7GC-4" target="fX7RQSnT5xPOVE9BPrSB-4" edge="1">
          <mxGeometry width="50" height="50" relative="1" as="geometry">
            <mxPoint x="434.96000000000004" y="520" as="sourcePoint" />
            <mxPoint x="510" y="700" as="targetPoint" />
            <Array as="points">
              <mxPoint x="450" y="525" />
              <mxPoint x="450" y="615" />
            </Array>
          </mxGeometry>
        </mxCell>
        <mxCell id="fX7RQSnT5xPOVE9BPrSB-7" value="" style="endArrow=classic;html=1;fontSize=18;exitX=0.5;exitY=0;exitDx=0;exitDy=0;" parent="1" source="94mBQBSpKMq9l9AAO7GC-9" edge="1">
          <mxGeometry width="50" height="50" relative="1" as="geometry">
            <mxPoint x="579.5" y="725" as="sourcePoint" />
            <mxPoint x="579.5" y="645" as="targetPoint" />
          </mxGeometry>
        </mxCell>
        <mxCell id="fX7RQSnT5xPOVE9BPrSB-8" value="receive value from&lt;br&gt;results channel&amp;nbsp;" style="text;html=1;strokeColor=none;fillColor=none;align=center;verticalAlign=middle;whiteSpace=wrap;rounded=0;fontSize=13;" parent="1" vertex="1">
          <mxGeometry x="560" y="690" width="150" height="20" as="geometry" />
        </mxCell>
        <mxCell id="fX7RQSnT5xPOVE9BPrSB-9" value="send requests" style="text;html=1;strokeColor=none;fillColor=none;align=center;verticalAlign=middle;whiteSpace=wrap;rounded=0;fontSize=13;" parent="1" vertex="1">
          <mxGeometry x="620" y="490" width="130" height="20" as="geometry" />
        </mxCell>
        <mxCell id="fX7RQSnT5xPOVE9BPrSB-10" value="print result" style="text;html=1;strokeColor=none;fillColor=none;align=center;verticalAlign=middle;whiteSpace=wrap;rounded=0;fontSize=13;" parent="1" vertex="1">
          <mxGeometry x="610" y="590" width="130" height="20" as="geometry" />
        </mxCell>
        <mxCell id="fX7RQSnT5xPOVE9BPrSB-11" value="" style="endArrow=classic;html=1;fontSize=18;" parent="1" edge="1">
          <mxGeometry width="50" height="50" relative="1" as="geometry">
            <mxPoint x="640" y="614.5" as="sourcePoint" />
            <mxPoint x="720" y="615" as="targetPoint" />
          </mxGeometry>
        </mxCell>
        <mxCell id="fX7RQSnT5xPOVE9BPrSB-12" value="test result" style="strokeWidth=2;html=1;shape=mxgraph.flowchart.document2;whiteSpace=wrap;size=0.25;" parent="1" vertex="1">
          <mxGeometry x="720" y="600" width="60" height="30" as="geometry" />
        </mxCell>
        <mxCell id="z7di1vemafJ1T-SNzWiH-1" value="" style="endArrow=classic;html=1;fontSize=18;entryX=0.075;entryY=1;entryDx=0;entryDy=0;entryPerimeter=0;" edge="1" parent="1">
          <mxGeometry width="50" height="50" relative="1" as="geometry">
            <mxPoint x="500" y="439" as="sourcePoint" />
            <mxPoint x="500" y="390" as="targetPoint" />
          </mxGeometry>
        </mxCell>
      </root>
    </mxGraphModel>
  </diagram>
</mxfile>
